<svg width="17" height="16" viewBox="0 0 17 16" fill="none" xmlns="http://www.w3.org/2000/svg">
<g id="instagram logo" clip-path="url(#clip0_2105_50494)">
<g id="Group">
<path id="Vector" d="M11.4347 0H4.96766C2.33941 0 0.201172 2.13823 0.201172 4.76649V11.2335C0.201172 13.8618 2.33941 16 4.96766 16H11.4347C14.0629 16 16.2012 13.8618 16.2012 11.2335V4.76649C16.2011 2.13823 14.0629 0 11.4347 0ZM14.5916 11.2335C14.5916 12.977 13.1782 14.3904 11.4347 14.3904H4.96766C3.22417 14.3904 1.81077 12.977 1.81077 11.2335V4.76649C1.81077 3.02297 3.22417 1.6096 4.96766 1.6096H11.4347C13.1782 1.6096 14.5916 3.02297 14.5916 4.76649V11.2335Z" fill="#17191C"/>
<path id="Vector_2" d="M8.20067 3.8623C5.91888 3.8623 4.0625 5.71868 4.0625 8.00044C4.0625 10.2822 5.91888 12.1386 8.20067 12.1386C10.4825 12.1386 12.3388 10.2822 12.3388 8.00044C12.3388 5.71865 10.4825 3.8623 8.20067 3.8623ZM8.20067 10.529C6.80417 10.529 5.6721 9.39698 5.6721 8.00047C5.6721 6.60397 6.8042 5.4719 8.20067 5.4719C9.59717 5.4719 10.7292 6.60397 10.7292 8.00047C10.7292 9.39695 9.59714 10.529 8.20067 10.529Z" fill="#17191C"/>
<path id="Vector_3" d="M12.3471 4.88455C12.8947 4.88455 13.3386 4.4406 13.3386 3.89296C13.3386 3.34532 12.8947 2.90137 12.3471 2.90137C11.7994 2.90137 11.3555 3.34532 11.3555 3.89296C11.3555 4.4406 11.7994 4.88455 12.3471 4.88455Z" fill="#17191C"/>
</g>
</g>
<defs>
<clipPath id="clip0_2105_50494">
<rect width="16" height="16" fill="white" transform="translate(0.201172)"/>
</clipPath>
</defs>
</svg>
