<svg width="17" height="16" viewBox="0 0 17 16" fill="none" xmlns="http://www.w3.org/2000/svg">
<g id="linkedin logo" clip-path="url(#clip0_2105_50492)">
<path id="Vector" d="M14.7538 0H1.6485C0.849172 0 0.201172 0.648 0.201172 1.44733V14.5526C0.201172 15.352 0.849172 16 1.6485 16H14.7538C15.5532 16 16.2012 15.352 16.2012 14.5526V1.44733C16.2012 0.648 15.5532 0 14.7538 0ZM5.15225 13.8155C5.15225 14.0481 4.96369 14.2366 4.73106 14.2366H2.93814C2.70551 14.2366 2.51694 14.0481 2.51694 13.8155V6.2996C2.51694 6.06697 2.70551 5.87841 2.93814 5.87841H4.73106C4.96369 5.87841 5.15225 6.06697 5.15225 6.2996V13.8155ZM3.8346 5.16993C2.8939 5.16993 2.13131 4.40733 2.13131 3.46664C2.13131 2.52595 2.8939 1.76335 3.8346 1.76335C4.77529 1.76335 5.53788 2.52595 5.53788 3.46664C5.53788 4.40733 4.77533 5.16993 3.8346 5.16993ZM14.522 13.8494C14.522 14.0632 14.3486 14.2366 14.1347 14.2366H12.2108C11.9969 14.2366 11.8235 14.0632 11.8235 13.8494V10.324C11.8235 9.79811 11.9778 8.01948 10.4492 8.01948C9.26345 8.01948 9.02295 9.2369 8.97466 9.78325V13.8494C8.97466 14.0632 8.8013 14.2366 8.58739 14.2366H6.72662C6.51275 14.2366 6.33935 14.0632 6.33935 13.8494V6.26568C6.33935 6.05181 6.51275 5.87841 6.72662 5.87841H8.58739C8.80126 5.87841 8.97466 6.05181 8.97466 6.26568V6.92138C9.41432 6.26157 10.0677 5.75229 11.4589 5.75229C14.5396 5.75229 14.522 8.63045 14.522 10.2119V13.8494Z" fill="#17191C"/>
</g>
<defs>
<clipPath id="clip0_2105_50492">
<rect width="16" height="16" fill="white" transform="translate(0.201172)"/>
</clipPath>
</defs>
</svg>
