<svg width="20" height="16" viewBox="0 0 20 16" fill="none" xmlns="http://www.w3.org/2000/svg">
<g id="Twitter logo" clip-path="url(#clip0_2105_50499)">
<path id="Vector" d="M6.36439 15.9246C13.7599 15.9246 17.8049 9.7974 17.8049 4.48402C17.8049 4.30993 17.8049 4.13669 17.7932 3.96345C18.5801 3.3945 19.2593 2.69003 19.7993 1.88299C19.0654 2.20817 18.2869 2.42142 17.4898 2.51564C18.3292 2.01314 18.9574 1.22281 19.2576 0.291714C18.4683 0.760054 17.6047 1.09011 16.7043 1.26764C16.098 0.623023 15.2963 0.19618 14.423 0.0531615C13.5497 -0.0898573 12.6536 0.0589207 11.8734 0.476473C11.0932 0.894025 10.4724 1.55707 10.107 2.36302C9.7416 3.16896 9.65201 4.07286 9.85208 4.93485C8.25346 4.8547 6.68957 4.43926 5.26192 3.7155C3.83427 2.99174 2.57479 1.97584 1.56523 0.733743C1.05105 1.61891 0.893555 2.66677 1.12482 3.66397C1.35608 4.66117 1.95871 5.53275 2.81001 6.10124C2.17015 6.08227 1.54424 5.90966 0.985095 5.59797V5.64888C0.985339 6.57723 1.3067 7.47691 1.89467 8.19533C2.48263 8.91374 3.301 9.40666 4.21097 9.59047C3.619 9.75191 2.9979 9.77551 2.39539 9.65945C2.65232 10.4584 3.15255 11.1571 3.8261 11.6577C4.49965 12.1584 5.31285 12.436 6.15195 12.4518C4.72813 13.5708 2.96925 14.1782 1.15834 14.1764C0.838424 14.1758 0.518819 14.1564 0.201172 14.1184C2.03997 15.2984 4.17952 15.9243 6.36439 15.9214" fill="#17191C"/>
</g>
<defs>
<clipPath id="clip0_2105_50499">
<rect width="19.5981" height="16" fill="white" transform="translate(0.201172)"/>
</clipPath>
</defs>
</svg>
